<?xml version="1.0" standalone="no"?>
<svg xmlns="http://www.w3.org/2000/svg" viewBox="0 0 67 70" width="67" height="70"><g fill="#dbae58" color="#dbae58" transform="translate(11.192 0) scale(0.11) "><svg width="400.0" height="400.0" x="0.0" y="0.0" viewBox="0 0 400 400"><title></title><desc></desc><g stroke="none" stroke-width="1" fill="none" fill-rule="evenodd"><g fill="currentColor"><path d="M98.0006154,323.476475 C73.3386931,298.309228 56.2165957,265.725663 50.2897915,229.381249 L2,201.501125 L50.1137554,173.722636 C63.2135655,90.0282806 135.630188,26 223.001417,26 C319.651868,26 398.002539,104.350671 398.002539,201.001122 C398.002539,289.163485 332.809474,362.099192 248.001577,374.230011 L248.001577,176.002211 C248.001577,134.577471 214.422718,101.000481 173.001096,101.000481 C131.570367,101.000481 98.0006154,134.579899 98.0006154,176.002211 L98.0006154,323.476475 L98.0006154,323.476475 Z M173.001096,201.001122 C186.808304,201.001122 198.001257,189.808169 198.001257,176.000962 C198.001257,162.193754 186.808304,151.000801 173.001096,151.000801 C159.193889,151.000801 148.000936,162.193754 148.000936,176.000962 C148.000936,189.808169 159.193889,201.001122 173.001096,201.001122 L173.001096,201.001122 Z"></path></g></g></svg></g><path fill="#488a99" fill-rule="nonzero" d="M4.70 17.21L4.70 17.21Q3.38 17.21 2.32 16.55Q1.25 15.89 0.62 14.78Q0 13.68 0 12.31L0 12.31L0.02 4.82Q0.02 3.50 0.64 2.41Q1.25 1.32 2.32 0.66Q3.38 0 4.70 0L4.70 0Q6.02 0 7.08 0.65Q8.14 1.30 8.76 2.39Q9.38 3.48 9.38 4.82L9.38 4.82L9.38 5.93Q9.38 6.02 9.29 6.02L9.29 6.02L6.60 6.02Q6.50 6.02 6.50 5.93L6.50 5.93L6.50 4.82Q6.50 4.03 5.99 3.46Q5.47 2.88 4.70 2.88L4.70 2.88Q3.84 2.88 3.38 3.47Q2.93 4.06 2.93 4.82L2.93 4.82L2.93 12.31Q2.93 13.20 3.44 13.75Q3.96 14.30 4.70 14.30L4.70 14.30Q5.47 14.30 5.99 13.69Q6.50 13.08 6.50 12.31L6.50 12.31L6.50 11.21Q6.50 11.11 6.60 11.11L6.60 11.11L9.31 11.11Q9.41 11.11 9.41 11.21L9.41 11.21L9.41 12.31Q9.41 13.68 8.77 14.78Q8.14 15.89 7.08 16.55Q6.02 17.21 4.70 17.21ZM15.60 17.21L15.60 17.21Q14.30 17.21 13.24 16.55Q12.17 15.89 11.52 14.80Q10.87 13.70 10.87 12.38L10.87 12.38L10.90 4.78Q10.90 3.46 11.53 2.38Q12.17 1.30 13.25 0.65Q14.33 0 15.60 0L15.60 0Q16.90 0 17.95 0.65Q19.01 1.30 19.64 2.38Q20.28 3.46 20.28 4.78L20.28 4.78L20.30 12.38Q20.30 13.70 19.67 14.80Q19.03 15.89 17.96 16.55Q16.90 17.21 15.60 17.21ZM15.60 14.30L15.60 14.30Q16.32 14.30 16.86 13.72Q17.40 13.13 17.40 12.38L17.40 12.38L17.38 4.78Q17.38 3.98 16.87 3.43Q16.37 2.88 15.60 2.88L15.60 2.88Q14.86 2.88 14.33 3.42Q13.80 3.96 13.80 4.78L13.80 4.78L13.80 12.38Q13.80 13.18 14.33 13.74Q14.86 14.30 15.60 14.30ZM26.54 16.94L22.25 16.97Q22.13 16.97 22.13 16.85L22.13 16.85L22.18 0.36Q22.18 0.26 22.27 0.26L22.27 0.26L26.76 0.24Q28.08 0.22 29.17 0.86Q30.26 1.51 30.91 2.60Q31.56 3.70 31.56 5.02L31.56 5.02L31.56 11.90Q31.56 13.30 30.89 14.44Q30.22 15.58 29.09 16.25Q27.96 16.92 26.54 16.94L26.54 16.94ZM25.08 3.14L25.06 14.02L26.54 14.02Q27.43 14.02 28.04 13.39Q28.66 12.77 28.66 11.90L28.66 11.90L28.66 4.99Q28.66 4.22 28.09 3.66Q27.53 3.10 26.76 3.12L26.76 3.12L25.08 3.14ZM41.30 16.97L33.55 16.97Q33.46 16.97 33.46 16.85L33.46 16.85L33.48 0.36Q33.48 0.26 33.58 0.26L33.58 0.26L41.28 0.26Q41.38 0.26 41.38 0.38L41.38 0.38L41.38 3.07Q41.38 3.17 41.28 3.17L41.28 3.17L36.36 3.17L36.36 6.91L41.28 6.91Q41.38 6.91 41.38 7.01L41.38 7.01L41.40 9.72Q41.40 9.82 41.30 9.82L41.30 9.82L36.36 9.82L36.36 14.02L41.30 14.02Q41.40 14.02 41.40 14.14L41.40 14.14L41.40 16.87Q41.40 16.97 41.30 16.97L41.30 16.97ZM49.56 16.97L46.85 16.97Q46.75 16.97 46.75 16.85L46.75 16.85L46.75 14.04L41.57 14.04Q41.47 14.04 41.47 13.92L41.47 13.92L41.47 11.28L46.70 0.36Q46.75 0.26 46.85 0.26L46.85 0.26L49.56 0.26Q49.63 0.26 49.63 0.36L49.63 0.36L49.66 11.18L51.34 11.18Q51.46 11.18 51.46 11.30L51.46 11.30L51.46 13.92Q51.46 14.04 51.36 14.04L51.36 14.04L49.66 14.04L49.66 16.85Q49.66 16.97 49.56 16.97L49.56 16.97ZM46.75 5.95L44.30 11.18L46.75 11.18L46.75 5.95ZM55.75 16.97L53.04 16.97Q52.92 16.97 52.92 16.85L52.92 16.85L52.94 0.36Q52.94 0.26 53.04 0.26L53.04 0.26L55.73 0.26Q55.82 0.26 55.82 0.36L55.82 0.36L55.85 16.85Q55.85 16.97 55.75 16.97L55.75 16.97ZM63.07 16.97L60.36 16.97Q60.26 16.97 60.26 16.85L60.26 16.85L60.26 3.17L57.14 3.17Q57.02 3.17 57.02 3.05L57.02 3.05L57.05 0.36Q57.05 0.26 57.14 0.26L57.14 0.26L66.26 0.26Q66.38 0.26 66.38 0.36L66.38 0.36L66.38 3.05Q66.38 3.17 66.29 3.17L66.29 3.17L63.14 3.17L63.17 16.85Q63.17 16.97 63.07 16.97L63.07 16.97Z" transform="translate(0, 52)"></path></svg>